<?xml version="1.0" encoding="UTF-8"?>
<svg xmlns="http://www.w3.org/2000/svg" width="1400" height="500" viewBox="0 0 1400 500">
  <defs>
    <linearGradient id="g1" x1="0" y1="0" x2="1" y2="1">
      <stop offset="0" stop-color="#2f6df6" stop-opacity="0.85"/>
      <stop offset="0.55" stop-color="#31d1ff" stop-opacity="0.55"/>
      <stop offset="1" stop-color="#0b0f16" stop-opacity="0.2"/>
    </linearGradient>

    <radialGradient id="glow" cx="70%" cy="30%" r="70%">
      <stop offset="0" stop-color="#31d1ff" stop-opacity="0.45"/>
      <stop offset="0.5" stop-color="#2f6df6" stop-opacity="0.18"/>
      <stop offset="1" stop-color="#0b0f16" stop-opacity="0"/>
    </radialGradient>

    <filter id="blur" x="-20%" y="-20%" width="140%" height="140%">
      <feGaussianBlur stdDeviation="18"/>
    </filter>

    <filter id="soft" x="-20%" y="-20%" width="140%" height="140%">
      <feGaussianBlur stdDeviation="6"/>
    </filter>
  </defs>

  <rect width="1400" height="500" fill="url(#glow)"/>
  <g filter="url(#blur)" opacity="0.9">
    <path d="M-30 300 C 180 220, 340 380, 540 300 S 910 220, 1160 310 S 1360 380, 1460 280 L 1460 520 L -30 520 Z"
          fill="url(#g1)"/>
  </g>

  <g filter="url(#soft)" opacity="0.55">
    <path d="M-40 210 C 160 130, 360 290, 560 210 S 930 130, 1180 220 S 1380 290, 1480 200"
          fill="none" stroke="#e8eefc" stroke-opacity="0.35" stroke-width="6"/>
    <path d="M-60 255 C 140 175, 360 330, 580 250 S 950 170, 1220 260 S 1400 330, 1500 235"
          fill="none" stroke="#31d1ff" stroke-opacity="0.25" stroke-width="5"/>
  </g>

  <g opacity="0.28" filter="url(#soft)">
    <circle cx="1040" cy="120" r="120" fill="#31d1ff"/>
    <circle cx="1110" cy="160" r="80" fill="#2f6df6"/>
  </g>
</svg>
