<svg xmlns="http://www.w3.org/2000/svg" width="1080" height="1350" viewBox="0 0 1080 1350" fill="none">

<defs>
  <linearGradient id="gradBlue" x1="0" y1="0" x2="1" y2="1">
    <stop offset="0%" stop-color="#5ED4FF"/>
    <stop offset="55%" stop-color="#2E8BFF"/>
    <stop offset="100%" stop-color="#2247FF"/>
  </linearGradient>
  <linearGradient id="gradGold" x1="0" y1="0" x2="1" y2="0">
    <stop offset="0%" stop-color="#FFD56A"/>
    <stop offset="100%" stop-color="#D7A32E"/>
  </linearGradient>
  <linearGradient id="gradGrass" x1="0" y1="1" x2="0.9" y2="0">
    <stop offset="0%" stop-color="#2E6B21"/>
    <stop offset="100%" stop-color="#8CCB43"/>
  </linearGradient>
  <radialGradient id="bgGlow" cx="50%" cy="42%" r="68%">
    <stop offset="0%" stop-color="#0A2755" stop-opacity="0.72"/>
    <stop offset="100%" stop-color="#03142B" stop-opacity="1"/>
  </radialGradient>
  <linearGradient id="frameStroke" x1="0" y1="0" x2="1" y2="1">
    <stop offset="0%" stop-color="#2E8BFF"/>
    <stop offset="100%" stop-color="#D7A32E"/>
  </linearGradient>
  <filter id="softGlow" x="-50%" y="-50%" width="200%" height="200%">
    <feGaussianBlur stdDeviation="6" result="blur"/>
    <feMerge><feMergeNode in="blur"/><feMergeNode in="SourceGraphic"/></feMerge>
  </filter>
</defs>

<rect width="1080" height="1350" rx="54" fill="url(#bgGlow)"/>
<rect x="22" y="22" width="1036" height="1306" rx="46" stroke="url(#frameStroke)" stroke-width="4" opacity="0.9"/>
<g>
<rect x="292" y="316" width="500" height="300" rx="30" fill="#0A1F41" stroke="url(#gradBlue)" stroke-width="6"/>
<path d="M362 544 V500" stroke="url(#gradBlue)" stroke-width="20" stroke-linecap="round"/>
<path d="M456 544 V456" stroke="url(#gradBlue)" stroke-width="20" stroke-linecap="round"/>
<path d="M550 544 V405" stroke="url(#gradBlue)" stroke-width="20" stroke-linecap="round"/>
<path d="M644 544 V360" stroke="url(#gradBlue)" stroke-width="20" stroke-linecap="round"/>
<path d="M350 490 C430 420, 520 385, 620 330 S720 284, 760 270" stroke="url(#gradBlue)" stroke-width="10" stroke-linecap="round" fill="none" filter="url(#softGlow)"/>
<circle cx="350" cy="490" r="12" fill="url(#gradBlue)"/>
<circle cx="456" cy="417" r="12" fill="url(#gradBlue)"/>
<circle cx="556" cy="374" r="12" fill="url(#gradBlue)"/>
<circle cx="654" cy="319" r="12" fill="url(#gradBlue)"/>
<circle cx="760" cy="270" r="12" fill="url(#gradBlue)"/>
<rect x="272" y="272" width="190" height="110" rx="20" fill="#0B2348" stroke="url(#gradBlue)" stroke-width="4" opacity="0.95"/>
<path d="M314 330 A28 28 0 1 1 362 350 L339 350 Z" fill="url(#gradBlue)" opacity="0.9"/>
<path d="M392 312 H424" stroke="url(#gradBlue)" stroke-width="8" stroke-linecap="round"/>
<path d="M392 344 H440" stroke="url(#gradBlue)" stroke-width="8" stroke-linecap="round" opacity="0.8"/>
</g>
<text x="540" y="790" text-anchor="middle" fill="url(#gradBlue)" font-family="Arial, Helvetica, sans-serif" font-size="90" font-weight="700">No Report Data Yet</text>
<line x1="360" y1="845" x2="500" y2="845" stroke="url(#gradGold)" stroke-width="4" stroke-linecap="round"/>
<line x1="580" y1="845" x2="720" y2="845" stroke="url(#gradGold)" stroke-width="4" stroke-linecap="round"/>
<rect x="528" y="833" width="24" height="24" transform="rotate(45 528 833)" fill="url(#gradGold)"/>
<rect x="536" y="841" width="8" height="8" transform="rotate(45 536 841)" fill="#03142B"/>
<text x="540" y="920" text-anchor="middle" fill="#A9C2E8" font-family="Arial, Helvetica, sans-serif" font-size="34" font-weight="500">Add trips to unlock insights.</text>
</svg>
