<svg xmlns="http://www.w3.org/2000/svg" width="1080" height="1350" viewBox="0 0 1080 1350" fill="none">

<defs>
  <linearGradient id="gradBlue" x1="0" y1="0" x2="1" y2="1">
    <stop offset="0%" stop-color="#5ED4FF"/>
    <stop offset="55%" stop-color="#2E8BFF"/>
    <stop offset="100%" stop-color="#2247FF"/>
  </linearGradient>
  <linearGradient id="gradGold" x1="0" y1="0" x2="1" y2="0">
    <stop offset="0%" stop-color="#FFD56A"/>
    <stop offset="100%" stop-color="#D7A32E"/>
  </linearGradient>
  <linearGradient id="gradGrass" x1="0" y1="1" x2="0.9" y2="0">
    <stop offset="0%" stop-color="#2E6B21"/>
    <stop offset="100%" stop-color="#8CCB43"/>
  </linearGradient>
  <radialGradient id="bgGlow" cx="50%" cy="42%" r="68%">
    <stop offset="0%" stop-color="#0A2755" stop-opacity="0.72"/>
    <stop offset="100%" stop-color="#03142B" stop-opacity="1"/>
  </radialGradient>
  <linearGradient id="frameStroke" x1="0" y1="0" x2="1" y2="1">
    <stop offset="0%" stop-color="#2E8BFF"/>
    <stop offset="100%" stop-color="#D7A32E"/>
  </linearGradient>
  <filter id="softGlow" x="-50%" y="-50%" width="200%" height="200%">
    <feGaussianBlur stdDeviation="6" result="blur"/>
    <feMerge><feMergeNode in="blur"/><feMergeNode in="SourceGraphic"/></feMerge>
  </filter>
</defs>

<rect width="1080" height="1350" rx="54" fill="url(#bgGlow)"/>
<rect x="22" y="22" width="1036" height="1306" rx="46" stroke="url(#frameStroke)" stroke-width="4" opacity="0.9"/>
<g>
<path d="M274 370 C274 314, 320 270, 376 270 C394 229, 433 204, 480 204 C548 204, 602 258, 602 326 C662 330, 708 378, 708 438 C708 501, 657 552, 594 552 H366 C305 552, 256 503, 256 442 C256 410, 263 390, 274 370 Z" fill="#0A1F41" stroke="url(#gradBlue)" stroke-width="7"/>
<path d="M520 406 A70 70 0 1 1 454 356" stroke="url(#gradBlue)" stroke-width="12" fill="none" stroke-linecap="round"/>
<path d="M451 340 L462 374 L429 365" fill="url(#gradBlue)"/>
<path d="M640 360 L690 360 L690 508 L640 508 Z M592 390 L642 390 L642 508 L592 508 Z M544 420 L594 420 L594 508 L544 508 Z" fill="#0B2348" stroke="url(#gradBlue)" stroke-width="4"/>
<path d="M296 560 C372 523, 457 524, 548 555 S692 600, 804 556" stroke="url(#gradBlue)" stroke-width="14" stroke-linecap="round" fill="none"/>
<path d="M218 520 C224 480, 244 448, 268 418" stroke="url(#gradGrass)" stroke-width="12" stroke-linecap="round"/>
<path d="M242 522 C248 484, 274 452, 294 430" stroke="url(#gradGrass)" stroke-width="12" stroke-linecap="round"/>
<path d="M642 454 L666 478 L715 429" stroke="url(#gradGold)" stroke-width="12" stroke-linecap="round" stroke-linejoin="round"/>
</g>
<text x="540" y="790" text-anchor="middle" fill="url(#gradBlue)" font-family="Arial, Helvetica, sans-serif" font-size="90" font-weight="700">No Backups Yet</text>
<line x1="360" y1="845" x2="500" y2="845" stroke="url(#gradGold)" stroke-width="4" stroke-linecap="round"/>
<line x1="580" y1="845" x2="720" y2="845" stroke="url(#gradGold)" stroke-width="4" stroke-linecap="round"/>
<rect x="528" y="833" width="24" height="24" transform="rotate(45 528 833)" fill="url(#gradGold)"/>
<rect x="536" y="841" width="8" height="8" transform="rotate(45 536 841)" fill="#03142B"/>
<text x="540" y="920" text-anchor="middle" fill="#A9C2E8" font-family="Arial, Helvetica, sans-serif" font-size="34" font-weight="500">Create a backup to protect your data.</text>
</svg>
