<svg xmlns="http://www.w3.org/2000/svg" width="1080" height="1350" viewBox="0 0 1080 1350" fill="none">

<defs>
  <linearGradient id="gradBlue" x1="0" y1="0" x2="1" y2="1">
    <stop offset="0%" stop-color="#5ED4FF"/>
    <stop offset="55%" stop-color="#2E8BFF"/>
    <stop offset="100%" stop-color="#2247FF"/>
  </linearGradient>
  <linearGradient id="gradGold" x1="0" y1="0" x2="1" y2="0">
    <stop offset="0%" stop-color="#FFD56A"/>
    <stop offset="100%" stop-color="#D7A32E"/>
  </linearGradient>
  <linearGradient id="gradGrass" x1="0" y1="1" x2="0.9" y2="0">
    <stop offset="0%" stop-color="#2E6B21"/>
    <stop offset="100%" stop-color="#8CCB43"/>
  </linearGradient>
  <radialGradient id="bgGlow" cx="50%" cy="42%" r="68%">
    <stop offset="0%" stop-color="#0A2755" stop-opacity="0.72"/>
    <stop offset="100%" stop-color="#03142B" stop-opacity="1"/>
  </radialGradient>
  <linearGradient id="frameStroke" x1="0" y1="0" x2="1" y2="1">
    <stop offset="0%" stop-color="#2E8BFF"/>
    <stop offset="100%" stop-color="#D7A32E"/>
  </linearGradient>
  <filter id="softGlow" x="-50%" y="-50%" width="200%" height="200%">
    <feGaussianBlur stdDeviation="6" result="blur"/>
    <feMerge><feMergeNode in="blur"/><feMergeNode in="SourceGraphic"/></feMerge>
  </filter>
</defs>

<rect width="1080" height="1350" rx="54" fill="url(#bgGlow)"/>
<rect x="22" y="22" width="1036" height="1306" rx="46" stroke="url(#frameStroke)" stroke-width="4" opacity="0.9"/>
<g>
<rect x="420" y="292" width="210" height="400" rx="34" fill="#0A1F41" stroke="url(#gradBlue)" stroke-width="6"/>
<rect x="472" y="336" width="106" height="10" rx="5" fill="#163E73"/>
<circle cx="525" cy="502" r="58" fill="#0E2B58" stroke="url(#gradBlue)" stroke-width="5"/>
<path d="M495 500 L518 523 L559 481" stroke="url(#gradBlue)" stroke-width="12" stroke-linecap="round" stroke-linejoin="round"/>
<path d="M266 356 V472 H382" stroke="url(#gradBlue)" stroke-width="8"/>
<path d="M286 450 L362 378" stroke="url(#gradBlue)" stroke-width="10" stroke-linecap="round"/>
<path d="M252 330 L394 484" stroke="url(#gradBlue)" stroke-width="10" stroke-linecap="round" opacity="0.85"/>
<path d="M310 612 C398 578, 486 578, 587 610 S744 652, 820 618" stroke="url(#gradBlue)" stroke-width="14" stroke-linecap="round" fill="none"/>
<path d="M728 560 C734 527, 750 500, 769 478" stroke="url(#gradGrass)" stroke-width="12" stroke-linecap="round"/>
<path d="M626 300 C658 267, 708 252, 758 262" stroke="url(#gradBlue)" stroke-width="8" fill="none" stroke-linecap="round"/>
<path d="M650 338 C684 315, 719 308, 747 314" stroke="url(#gradBlue)" stroke-width="8" fill="none" stroke-linecap="round" opacity="0.8"/>
<path d="M560 258 C586 225, 628 203, 676 199" stroke="url(#gradGold)" stroke-width="8" fill="none" stroke-linecap="round" opacity="0.9"/>
</g>
<text x="540" y="790" text-anchor="middle" fill="url(#gradBlue)" font-family="Arial, Helvetica, sans-serif" font-size="90" font-weight="700">Offline Ready</text>
<line x1="360" y1="845" x2="500" y2="845" stroke="url(#gradGold)" stroke-width="4" stroke-linecap="round"/>
<line x1="580" y1="845" x2="720" y2="845" stroke="url(#gradGold)" stroke-width="4" stroke-linecap="round"/>
<rect x="528" y="833" width="24" height="24" transform="rotate(45 528 833)" fill="url(#gradGold)"/>
<rect x="536" y="841" width="8" height="8" transform="rotate(45 536 841)" fill="#03142B"/>
<text x="540" y="920" text-anchor="middle" fill="#A9C2E8" font-family="Arial, Helvetica, sans-serif" font-size="34" font-weight="500">Log trips even without a signal.</text>
</svg>
