<svg xmlns="http://www.w3.org/2000/svg" width="1080" height="1350" viewBox="0 0 1080 1350" fill="none">

<defs>
  <linearGradient id="gradBlue" x1="0" y1="0" x2="1" y2="1">
    <stop offset="0%" stop-color="#5ED4FF"/>
    <stop offset="55%" stop-color="#2E8BFF"/>
    <stop offset="100%" stop-color="#2247FF"/>
  </linearGradient>
  <linearGradient id="gradGold" x1="0" y1="0" x2="1" y2="0">
    <stop offset="0%" stop-color="#FFD56A"/>
    <stop offset="100%" stop-color="#D7A32E"/>
  </linearGradient>
  <linearGradient id="gradGrass" x1="0" y1="1" x2="0.9" y2="0">
    <stop offset="0%" stop-color="#2E6B21"/>
    <stop offset="100%" stop-color="#8CCB43"/>
  </linearGradient>
  <radialGradient id="bgGlow" cx="50%" cy="42%" r="68%">
    <stop offset="0%" stop-color="#0A2755" stop-opacity="0.72"/>
    <stop offset="100%" stop-color="#03142B" stop-opacity="1"/>
  </radialGradient>
  <linearGradient id="frameStroke" x1="0" y1="0" x2="1" y2="1">
    <stop offset="0%" stop-color="#2E8BFF"/>
    <stop offset="100%" stop-color="#D7A32E"/>
  </linearGradient>
  <filter id="softGlow" x="-50%" y="-50%" width="200%" height="200%">
    <feGaussianBlur stdDeviation="6" result="blur"/>
    <feMerge><feMergeNode in="blur"/><feMergeNode in="SourceGraphic"/></feMerge>
  </filter>
</defs>

<rect width="1080" height="1350" rx="54" fill="url(#bgGlow)"/>
<rect x="22" y="22" width="1036" height="1306" rx="46" stroke="url(#frameStroke)" stroke-width="4" opacity="0.9"/>
<g>
<path d="M284 360 C284 313, 322 276, 368 276 H650" stroke="url(#gradBlue)" stroke-width="8" fill="none"/>
<path d="M650 276 C696 276, 734 313, 734 360 V402" stroke="url(#gradGold)" stroke-width="8" fill="none"/>
<path d="M734 402 C734 447, 698 484, 650 484 H392" stroke="url(#gradBlue)" stroke-width="8" fill="none"/>
<path d="M392 484 C346 484, 310 447, 310 402 V362" stroke="url(#gradBlue)" stroke-width="8" fill="none" opacity="0.9"/>
<path d="M646 252 L674 280 L646 308" stroke="url(#gradGold)" stroke-width="10" stroke-linecap="round" stroke-linejoin="round" fill="none"/>
<path d="M396 512 L368 484 L396 456" stroke="url(#gradBlue)" stroke-width="10" stroke-linecap="round" stroke-linejoin="round" fill="none"/>
<circle cx="522" cy="382" r="112" fill="#0A1F41" stroke="url(#gradBlue)" stroke-width="6"/>
<path d="M522 324 V388 L570 436" stroke="url(#gradBlue)" stroke-width="12" stroke-linecap="round" stroke-linejoin="round"/>
</g>
<text x="540" y="790" text-anchor="middle" fill="url(#gradBlue)" font-family="Arial, Helvetica, sans-serif" font-size="90" font-weight="700">Check for Updates</text>
<line x1="360" y1="845" x2="500" y2="845" stroke="url(#gradGold)" stroke-width="4" stroke-linecap="round"/>
<line x1="580" y1="845" x2="720" y2="845" stroke="url(#gradGold)" stroke-width="4" stroke-linecap="round"/>
<rect x="528" y="833" width="24" height="24" transform="rotate(45 528 833)" fill="url(#gradGold)"/>
<rect x="536" y="841" width="8" height="8" transform="rotate(45 536 841)" fill="#03142B"/>
<text x="540" y="920" text-anchor="middle" fill="#A9C2E8" font-family="Arial, Helvetica, sans-serif" font-size="34" font-weight="500">Use in update and refresh screens.</text>
</svg>
